<svg width="141" height="60" viewBox="0 0 141 60" fill="none" xmlns="http://www.w3.org/2000/svg">
<g clip-path="url(#clip0_1_28)">
<mask id="path-1-inside-1_1_28" fill="white">
<path d="M0 30C0 13.4315 13.4315 0 30 0H60.8633V60H30C13.4315 60 0 46.5685 0 30V30Z"/>
</mask>
<path d="M-8 30C-8 9.01318 9.01318 -8 30 -8H60.8633V8H30C17.8497 8 8 17.8497 8 30H-8ZM60.8633 68H30C9.01318 68 -8 50.9868 -8 30H8C8 42.1503 17.8497 52 30 52H60.8633V68ZM30 68C9.01318 68 -8 50.9868 -8 30C-8 9.01318 9.01318 -8 30 -8V8C17.8497 8 8 17.8497 8 30C8 42.1503 17.8497 52 30 52V68ZM60.8633 0V60V0Z" fill="white" mask="url(#path-1-inside-1_1_28)"/>
<mask id="path-3-inside-2_1_28" fill="white">
<path d="M141 30C141 46.5685 127.569 60 111 60H80.1367V0H111C127.569 0 141 13.4315 141 30V30Z"/>
</mask>
<path d="M149 30C149 50.9868 131.987 68 111 68H80.1367V52L111 52C123.15 52 133 42.1503 133 30H149ZM80.1367 -8L111 -8C131.987 -8 149 9.01318 149 30H133C133 17.8497 123.15 8 111 8H80.1367V-8ZM111 -8C131.987 -8 149 9.01318 149 30C149 50.9868 131.987 68 111 68V52C123.15 52 133 42.1503 133 30C133 17.8497 123.15 8 111 8V-8ZM80.1367 60V0V60Z" fill="white" mask="url(#path-3-inside-2_1_28)"/>
<rect x="32" y="27" width="78" height="8" fill="white"/>
</g>
<defs>
<clipPath id="clip0_1_28">
<rect width="141" height="60" fill="white"/>
</clipPath>
</defs>
</svg>
