<svg width="132" height="131" viewBox="0 0 132 131" fill="none" xmlns="http://www.w3.org/2000/svg">
<mask id="path-1-inside-1_0_1" fill="white">
<path d="M120 70V70C120 103.137 93.1371 130 60 130V130L60 70H120Z"/>
</mask>
<path d="M120 70V70C120 103.137 93.1371 130 60 130V130L60 70H120Z" fill="#D4D748"/>
<path d="M128 70C128 107.555 97.5554 138 60 138V122C88.7188 122 112 98.7188 112 70H128ZM60 130L60 70L60 130ZM60 70H120H60ZM128 70C128 107.555 97.5554 138 60 138V122C88.7188 122 112 98.7188 112 70H128Z" fill="#AE7929" mask="url(#path-1-inside-1_0_1)"/>
<mask id="path-3-inside-2_0_1" fill="white">
<path d="M60.1438 130.072C27.0067 130.072 0.143753 103.209 0.143753 70.0717V70.0717C0.143753 36.9347 27.0067 10.0717 60.1438 10.0717V10.0717L60.1438 130.072V130.072Z"/>
</mask>
<path d="M60.1438 130.072C27.0067 130.072 0.143753 103.209 0.143753 70.0717V70.0717C0.143753 36.9347 27.0067 10.0717 60.1438 10.0717V10.0717L60.1438 130.072V130.072Z" fill="#D4D748"/>
<path d="M60.1438 138.072C22.5884 138.072 -7.85625 107.627 -7.85625 70.0717C-7.85625 32.5164 22.5884 2.07175 60.1438 2.07175V18.0717C31.4249 18.0717 8.14375 41.3529 8.14375 70.0717C8.14375 98.7906 31.4249 122.072 60.1438 122.072V138.072ZM60.1438 10.0717L60.1438 130.072L60.1438 10.0717ZM60.1438 138.072C22.5884 138.072 -7.85625 107.627 -7.85625 70.0717H8.14375C8.14375 98.7906 31.4249 122.072 60.1438 122.072V138.072ZM-7.85625 70.0717C-7.85625 32.5164 22.5884 2.07175 60.1438 2.07175V18.0717C31.4249 18.0717 8.14375 41.3529 8.14375 70.0717H-7.85625Z" fill="#AE7929" mask="url(#path-3-inside-2_0_1)"/>
<circle cx="36.5" cy="45.5" r="6.5" fill="#DA2C2C"/>
<circle cx="29.5" cy="76.5" r="6.5" fill="#DA2C2C"/>
<circle cx="60.5" cy="82.5" r="6.5" fill="#DA2C2C"/>
<circle cx="49.5" cy="106.5" r="6.5" fill="#DA2C2C"/>
<circle cx="90.5" cy="95.5" r="6.5" fill="#DA2C2C"/>
<mask id="path-10-inside-3_0_1" fill="white">
<path d="M72 0V0C105.137 0 132 26.8629 132 60V60H72V0Z"/>
</mask>
<path d="M72 0V0C105.137 0 132 26.8629 132 60V60H72V0Z" fill="#D4D748"/>
<path d="M72 -8C109.555 -8 140 22.4446 140 60H124C124 31.2812 100.719 8 72 8V-8ZM132 60H72H132ZM72 60V0V60ZM72 -8C109.555 -8 140 22.4446 140 60H124C124 31.2812 100.719 8 72 8V-8Z" fill="#AE7929" mask="url(#path-10-inside-3_0_1)"/>
<circle cx="95.5" cy="52.5" r="6.5" fill="#DA2C2C"/>
<circle cx="85.5" cy="27.5" r="6.5" fill="#DA2C2C"/>
</svg>
