<svg width="90" height="90" viewBox="0 0 90 90" fill="none" xmlns="http://www.w3.org/2000/svg">
<g clip-path="url(#clip0_1_52)">
<circle cx="45" cy="45" r="42.5" stroke="white" stroke-width="5"/>
<path d="M39.49 64V39.37H50.08V64H39.49ZM44.92 35.59C43.3 35.59 41.92 35.02 40.78 33.88C39.66 32.74 39.1 31.38 39.1 29.8C39.1 28.22 39.66 26.85 40.78 25.69C41.92 24.53 43.3 23.95 44.92 23.95C45.98 23.95 46.95 24.22 47.83 24.76C48.71 25.28 49.42 25.98 49.96 26.86C50.5 27.74 50.77 28.72 50.77 29.8C50.77 31.38 50.19 32.74 49.03 33.88C47.89 35.02 46.52 35.59 44.92 35.59Z" fill="white"/>
</g>
<defs>
<clipPath id="clip0_1_52">
<rect width="90" height="90" fill="white"/>
</clipPath>
</defs>
</svg>
